<svg id="Layer_1" data-name="Layer 1" xmlns="http://www.w3.org/2000/svg" viewBox="0 0 540 120">
  <defs>
    <style>.cls-1{fill:#313a82;}.cls-2{fill:#f6af00;}</style>
  </defs>
  <path class="cls-1"
        d="M52.54,120.11c-1.75-.23-3.51-.41-5.25-.71-2.24-.39-4.49-.76-6.67-1.36s-4.18-1.42-6.35-2.18L98.82,5.11l.25.12L57.7,102.75c2-.32,3.69-.5,5.33-.86,14-3,25.17-15.11,27.38-29.3a35.33,35.33,0,0,0-1.87-18.34,5.87,5.87,0,0,1,.15-4.9c2.2-4.87,4.23-9.82,6.42-15,.45.51.8.87,1.11,1.27A52.42,52.42,0,0,1,106.91,70c-.76,23.34-18.56,44.34-41.54,48.79-2.54.49-5.14.69-7.7,1a9.93,9.93,0,0,0-1.22.32Z"/>
  <path class="cls-1"
        d="M145.59,62.62l26.73,0,0,10.36-26.73,0,0,33.05-11.44,0,.12-73.19,11.34,0,32.65.05,0,10.26-32.55,0Z"/>
  <path class="cls-1" d="M233.6,106.16l-30.67,0-11.34,0,.11-73.19,11.45,0L203,95.75l30.58,0Z"/>
  <path class="cls-1"
        d="M250.28,100.37a21.74,21.74,0,0,1-6.49-7.9,24.64,24.64,0,0,1-2.45-11.15L241.42,33l11.44,0-.08,48.33c0,4.34,1.57,7.7,4.52,10a18.21,18.21,0,0,0,11.14,3.47,18.66,18.66,0,0,0,11.15-3.43c3-2.26,4.45-5.62,4.46-10l.08-48.33,11.54,0-.08,48.33a26.15,26.15,0,0,1-2.48,11.15,24,24,0,0,1-6.53,7.88,31.21,31.21,0,0,1-36.3-.06Z"/>
  <path class="cls-1"
        d="M361.44,106.37,342,77.73,322.48,106.3l-14.4,0,26.69-39.12L311.65,33.1l14.4,0L342,56.62l16.12-23.45,14.4,0-23.33,34,26.66,39.2Z"/>
  <path class="cls-1"
        d="M433,84.78a19,19,0,0,1-9.1,16.85c-5,3.15-11.85,4.82-20.13,4.81h-6.51l-9.67,0,.12-73.19,11.44,0h4.74c8.09,0,14,1.5,18.14,4.56a15.59,15.59,0,0,1,5,6.32,19.25,19.25,0,0,1-4.28,21.11,28.12,28.12,0,0,1,3.35,2.66A22.44,22.44,0,0,1,433,84.78Zm-10.26,0a12.33,12.33,0,0,0-3.83-9.38,17.94,17.94,0,0,0-5.62-3.66c-1,.39-2,.89-3.06,1.28a67.26,67.26,0,0,1-11.15,3.33l0,19.73h4.74C410,96.09,415,95,418.28,93A8.93,8.93,0,0,0,422.73,84.77ZM399.13,43.5l0,22.19a43.51,43.51,0,0,0,7.5-2.35,25.49,25.49,0,0,0,8.49-5.12,8.58,8.58,0,0,0,3.07-6.41c0-3.55-1.27-4.93-2.36-5.72-2.76-2.08-8.08-2.58-11.93-2.58Z"/>
  <path class="cls-1" d="M487.6,106.57l-30.67,0-11.35,0,.12-73.19,11.44,0L457,96.17l30.58,0Z"/>
  <path class="cls-1"
        d="M507.5,63.2l26.73,0,0,10.35-26.73,0,0,22.69,32.45,0,0,10.36-32.55-.06-11.34,0,.12-73.18h11.34l32.55.06,0,10.26-32.45-.06Z"/>
  <path class="cls-2"
        d="M6.72,94.35c1,1.45,2,2.93,3.05,4.34,1.37,1.8,2.74,3.62,4.28,5.29s3.19,3,4.86,4.62L87.45.28,87.23.11,19.75,81.77c-.65-1.94-1.26-3.51-1.7-5.12C14.3,62.86,19.86,47.34,31.44,38.84a35.28,35.28,0,0,1,17.14-6.79,5.82,5.82,0,0,0,4.27-2.39c3.32-4.2,6.78-8.28,10.35-12.61-.66-.16-1.15-.31-1.65-.39A52.38,52.38,0,0,0,26.17,23C5.81,34.42-4.63,59.89,2,82.33c.74,2.49,1.76,4.88,2.63,7.32a10.42,10.42,0,0,1,.28,1.23Z"/>
</svg>
